# xmcd
#
# Track frame offsets:
#	150
#	14675
#	34840
#	59402
#	76546
#	94682
#	119940
#	144345
#	168124
#
# Disc length: 2472 seconds
#
# Revision: 1
# Processed by: cddbd v1.5.1PL0 Copyright (c) Steve Scherf et al.
# Submitted via: audiograbber 1.83.01
#
DISCID=7009a609
DTITLE=The Fishers of Men - Live At The Grand
DYEAR=2004
DGENRE=Gospel
TTITLE0=It Won't Be Long
TTITLE1=Small Voice
TTITLE2=When The Son Comes
TTITLE3=The Chairs Came Down
TTITLE4=Way of The Cross
TTITLE5=This Old House
TTITLE6=He's Alive
TTITLE7=One Touch
TTITLE8=Heaven's Just A Prayer Away
EXTD=
EXTT0=
EXTT1=
EXTT2=
EXTT3=
EXTT4=
EXTT5=
EXTT6=
EXTT7=
EXTT8=
PLAYORDER=
